# xmcd CD database file
#
# Track frame offsets:
#	150
#	19462
#	46950
#
# Disc length: 880 seconds
#
# Revision: 0
# Processed by: cddbd v1.5PL3 Copyright (c) Steve Scherf et al.
# Submitted via: CDex 1.51
#
DISCID=20036e03
DTITLE=FBI - Moonlight Prelude
DYEAR=1997
DGENRE=JPop
TTITLE0=Moonlight Prelude
TTITLE1=Get into the Moonlight 〜M-1 Remix〜
TTITLE2=Moonlight Prelude 〜back track〜
EXTD=YEAR: 1997
EXTT0=
EXTT1=
EXTT2=
PLAYORDER=
